<svg version="1.1" id="Layer_1" xmlns="http://www.w3.org/2000/svg" xmlns:xlink="http://www.w3.org/1999/xlink" x="0px" y="0px"
	 width="100%" viewBox="40 35 295 165" enable-background="new 0 0 380 214" xml:space="preserve">
<defs>
  <mask id="logo-mask">
    <rect x="0" y="0" width="1000" height="1000" fill="white" />
    <path fill="black" d="M76.183388,142.186768 C78.190125,138.887177 79.844536,135.785110 81.868645,132.946701 C84.599686,129.116959 87.639946,128.618378 91.131767,131.836029 C95.531166,135.889984 99.565971,140.351151 103.630394,144.754517 C111.064552,152.808640 118.404984,160.949249 126.182861,169.491272 C130.082840,163.189453 129.639633,157.400162 126.472076,152.097488 C123.514526,147.146347 123.276207,142.694427 125.668274,137.533325 C126.419510,135.912445 125.371994,133.457870 125.147781,131.384888 C123.204414,132.112885 121.242592,132.796707 119.328995,133.596008 C118.759186,133.834015 118.324661,134.395920 117.845352,134.795105 C112.968559,130.240707 112.109367,127.016273 114.217346,121.513275 C114.395821,121.047379 114.786018,120.606865 114.803444,120.144234 C114.900803,117.558853 114.913681,114.970284 114.955429,112.382797 C112.417839,113.118660 109.880257,113.854530 106.198669,114.922134 C104.048080,110.687119 101.012993,105.103409 98.447212,99.311790 C97.959190,98.210213 99.243118,96.251480 99.854614,94.747223 C102.795845,87.511971 106.224281,80.433228 108.538322,73.005615 C109.426476,70.154823 108.963905,64.951317 107.094910,63.584404 C103.449059,60.917953 100.175529,64.641541 98.277931,67.690140 C94.333000,74.027901 90.624718,80.558784 87.428581,87.299248 C85.576073,91.206078 83.065155,93.292976 78.947746,93.956070 C74.865730,94.613457 70.818687,95.488083 66.928642,96.234375 C66.496223,95.582359 66.254333,95.332558 66.144791,95.034164 C65.306747,92.751427 64.494476,90.459221 63.674191,88.169960 C61.687504,89.829811 59.024586,91.112366 57.846745,93.223488 C54.861057,98.574921 50.701405,100.819695 44.738880,100.028000 C41.125984,81.614098 43.280029,63.004505 42.723312,44.493870 C42.664478,42.537605 42.715401,40.578041 42.715401,38.303391 C72.646454,38.303391 102.029533,38.303391 131.697510,38.303391 C131.697510,89.816780 131.697510,141.062119 131.697510,192.929962 C102.219666,192.929962 72.849136,192.929962 43.093513,192.929962 C43.093513,185.838226 43.093513,178.622604 43.093513,171.093979 C46.170116,171.093979 49.064789,171.093979 52.232822,171.093979 C52.514881,173.070175 52.759121,174.781387 53.066433,176.934509 C54.765285,175.778214 56.076206,174.885956 57.897915,173.646042 C62.834797,178.636795 67.705788,183.560928 72.551025,188.459061 C76.150818,182.929245 76.332687,177.623291 71.926125,172.461884 C66.072914,165.606018 65.102448,158.682037 71.216759,151.254562 C73.291847,148.733826 74.429642,145.441498 76.183388,142.186768 z" />
    <path fill="black" d="M172.000183,193.132111 C162.021301,193.134796 152.542389,193.134796 142.673874,193.134796 C142.673874,185.476212 142.673874,178.277222 142.673874,170.311371 C151.440536,171.956161 159.709061,173.619308 168.021103,175.025391 C173.065460,175.878723 176.906265,177.237625 179.556259,182.642502 C182.924423,189.512146 191.578796,190.143158 197.467148,184.538635 C199.987778,182.139481 202.243225,181.686630 205.423416,182.136780 C213.476166,183.276642 216.785309,180.685318 218.266449,172.721909 C221.128525,157.333801 224.039398,141.954773 226.935486,126.572998 C228.945587,115.896896 224.386902,108.829773 213.857040,106.040329 C212.187363,105.598015 210.770432,104.242821 209.107407,103.723633 C206.999268,103.065460 204.774368,102.639465 202.571762,102.462532 C199.954376,102.252281 197.307205,102.413055 194.665878,102.413055 C195.371399,87.792168 193.107132,85.084679 178.992447,83.081604 C173.710953,82.332092 168.060242,81.118858 164.352783,86.442635 C162.707123,88.805756 162.095428,91.888931 160.539566,95.855942 C158.329849,94.550949 155.968079,93.554016 154.104477,91.970703 C150.503036,88.910873 147.081146,89.601631 142.930206,92.591988 C142.930206,74.136269 142.930206,56.494415 142.930206,38.465473 C172.109802,38.465473 201.305008,38.465473 230.823853,38.465473 C230.823853,89.940674 230.823853,141.185394 230.823853,193.129440 C211.322128,193.129440 191.911163,193.129440 172.000183,193.132111 z" />
    <path fill="black" d="M241.831543,106.999939 C241.831329,83.881172 241.831329,61.262413 241.831329,38.314503 C271.743317,38.314503 301.125610,38.314503 330.867218,38.314503 C330.977234,40.104145 331.161255,41.717514 331.162720,43.331047 C331.182159,64.490417 331.092133,85.650459 331.256561,106.808571 C331.284668,110.425049 330.172058,112.530449 327.030182,114.366295 C321.448456,117.627769 316.178650,121.423134 310.877106,124.929825 C303.226837,119.036911 303.247467,119.049744 307.956024,111.479019 C310.946320,106.671028 313.981812,101.885223 316.790985,96.971664 C323.412933,85.389236 321.009155,71.603561 311.009064,63.055305 C301.726166,55.120098 287.777740,54.729431 278.182159,62.135876 C267.748688,70.189041 264.592590,83.886345 270.526245,95.734093 C271.930817,98.538628 273.614105,101.203575 275.450531,104.426468 C267.778503,110.181519 260.333710,115.997536 252.624939,121.439667 C249.346710,123.753967 247.769379,126.528252 247.182922,130.402222 C246.078461,137.697861 244.606201,144.937805 243.286850,152.200912 C242.801819,152.155121 242.316803,152.109329 241.831772,152.063522 C241.831772,137.209000 241.831772,122.354469 241.831543,106.999939 z" />
    <path fill="black" d="M220.132446,123.066612 C216.883698,140.629745 213.660461,157.755798 210.417038,174.989182 C205.494873,174.983582 202.089371,174.499878 199.564560,169.931229 C195.542130,162.652603 188.039825,161.926117 181.179337,166.898911 C179.411911,168.180023 176.647797,169.075439 174.557709,168.751846 C165.185883,167.300873 155.894394,165.333755 146.568436,163.582001 C144.324692,163.160538 142.551437,162.689560 142.571609,159.651382 C142.699997,140.328690 142.668030,121.004944 142.713150,101.681602 C142.714233,101.219307 142.998016,100.757675 143.408569,99.509300 C157.798904,102.304268 172.214279,105.104111 188.193985,108.207787 C186.543121,112.255341 185.812805,116.029007 183.729996,118.777962 C177.659698,126.789795 180.060455,135.667892 180.615982,144.292572 C180.682587,145.326859 184.255020,146.786606 186.281830,146.930313 C194.924423,147.543076 195.760086,146.552505 196.021530,138.152267 C196.273468,130.056946 196.356827,122.192192 189.753433,115.893501 C188.463593,114.663177 188.867584,111.657059 188.271530,108.201538 C198.043350,110.305298 206.810532,111.893593 215.392181,114.178680 C219.142120,115.177193 220.427704,118.750900 220.132446,123.066612 z" />
    <path fill="black" d="M263.000122,193.102768 C255.875076,193.102661 249.249969,193.102661 241.886444,193.102661 C241.886444,188.312469 241.784531,184.051682 241.962006,179.802567 C242.003555,178.807983 242.759811,177.547440 243.579178,176.926163 C253.763672,169.204010 264.020630,161.577423 274.289124,153.903717 C282.438965,161.957397 290.338257,169.572235 297.983276,177.434326 C300.292236,179.808853 301.938568,180.037369 304.669495,178.140503 C312.989929,172.361252 321.500275,166.855377 330.638428,160.776260 C330.638428,171.760254 330.638428,182.045975 330.638428,193.102875 C308.303131,193.102875 285.901581,193.102875 263.000122,193.102768 z" />
    <path fill="black" d="M45.353836,117.370979 C51.919235,117.805939 58.034374,118.193573 64.134140,118.749809 C68.547279,119.152237 69.939270,122.187408 68.661606,125.829498 C65.261765,135.521088 61.852760,145.255295 57.595360,154.583679 C54.877319,160.539200 48.539688,158.504715 42.706154,159.300201 C42.706154,154.201599 42.705376,149.614426 42.706326,145.027252 C42.707943,137.226166 42.602325,129.422195 42.811283,121.626656 C42.849560,120.198784 44.168961,118.805252 45.353836,117.370979 z" />
    <path fill="black" d="M251.070908,146.018097 C251.096558,132.286011 257.794891,123.308083 269.158234,117.182716 C271.996368,115.652840 274.527496,113.553398 278.356506,110.920250 C277.709900,115.537659 277.315430,118.751335 276.799255,121.945343 C276.058105,126.531250 274.641663,131.092514 274.560913,135.682709 C274.402924,144.663544 269.772614,150.261169 262.538757,154.679459 C257.921112,157.499802 253.713791,160.991913 248.099899,163.648010 C249.069611,157.913193 250.039322,152.178375 251.070908,146.018097 z" />
    <path fill="black" d="M302.351379,153.412384 C301.361755,158.670380 300.445038,163.506531 299.417206,168.928741 C293.996857,163.676300 289.278564,158.641083 284.059296,154.193771 C279.919067,150.665924 278.622528,147.012375 279.952637,141.640961 C281.732269,134.454254 282.659332,127.056412 284.179657,118.465401 C287.747253,124.038597 290.642059,128.560837 293.899963,133.650253 C296.140869,130.406250 297.976440,127.749031 299.933807,124.915466 C304.599762,127.590271 306.947571,130.727951 305.447693,136.337296 C303.995178,141.769470 303.397430,147.430206 302.351379,153.412384 z" />
    <path fill="black" d="M306.794281,74.347961 C310.847748,80.823776 310.822296,87.010918 306.509460,92.832489 C302.593292,98.118675 297.087128,100.154160 290.636627,98.776382 C283.954285,97.349052 279.934906,92.983994 278.417145,86.387222 C276.886688,79.735291 280.427856,72.766121 286.912354,69.359398 C293.510590,65.892937 300.536835,67.565651 306.794281,74.347961 z" />
    <path fill="black" d="M310.373535,166.549316 C309.187836,167.154175 308.323853,167.553284 306.475098,168.407257 C307.773102,160.771362 309.484619,154.009445 309.961151,147.161591 C310.772980,135.495544 315.753265,127.071404 326.591766,122.321991 C327.648621,121.858887 328.588135,121.133469 329.613800,120.589592 C329.858582,120.459785 330.230774,120.570351 331.145935,120.570351 C331.145935,130.486343 331.247955,140.399933 331.021759,150.306015 C330.992218,151.599655 329.517914,153.188065 328.300293,154.071030 C322.510193,158.269775 316.577301,162.271606 310.373535,166.549316 z" />
    <path fill="black" d="M169.321442,88.235924 C175.625961,88.785187 181.703201,89.130486 187.535751,90.510216 C190.773270,91.276085 190.919586,95.066353 188.495468,100.860985 C182.129883,99.579468 175.456863,98.892387 169.264084,96.790382 C163.905075,94.971367 167.663773,91.335884 169.321442,88.235924 z" />
    <path fill="black" d="M183.931641,176.043365 C184.271652,172.080765 186.414581,169.774033 189.749603,170.657684 C191.748657,171.187363 194.182861,173.766861 194.507538,175.739990 C194.761169,177.281342 192.409119,180.277817 190.611069,180.909851 C187.206741,182.106506 184.564713,180.343048 183.931641,176.043365 z" />
    <path fill="black" d="M187.332062,119.693031 C190.330429,119.871552 191.776093,121.326851 190.478638,123.815346 C190.038254,124.659988 187.317490,125.317482 186.494781,124.771240 C184.121750,123.195671 184.688629,121.254921 187.332062,119.693031 z" />
  </mask>
</defs>
<rect x="40" y="35" width="295" height="165" fill="#262E23" mask="url(#logo-mask)" />
</svg>